<svg width="1094" height="425" viewBox="0 0 1094 425" fill="none" xmlns="http://www.w3.org/2000/svg">
<path opacity="0.05" d="M280.781 424.46C279.45 423.472 281.316 420.588 283.569 420.15C286.317 419.617 288.945 421.679 287.955 423.593C287.277 424.907 282.208 425.52 280.781 424.46ZM272.997 416.335C272.552 415.016 270.927 413.582 269.387 413.147C266.856 412.433 266.6 411.807 266.719 406.63C266.791 403.481 266.418 399.017 265.891 396.71C265.169 393.552 265.413 391.826 266.88 389.718C269.393 386.109 269.417 380.149 266.925 378.613C264.532 377.138 264.969 372.775 267.875 369.122C269.067 367.624 270.048 365.785 270.055 365.036C270.061 364.287 270.887 362.505 271.89 361.077C273.716 358.477 276.774 351.044 278.491 345.034C279.562 341.282 279.217 329.818 277.784 321.522C276.821 315.953 276.531 315.564 271.274 312.823C264.593 309.338 255.38 299.915 255.38 296.566C255.38 296.018 253.317 294.283 250.795 292.711C246.667 290.136 246.222 289.435 246.327 285.672C246.396 283.217 247.255 280.829 248.409 279.882C249.489 278.995 250.735 276.587 251.178 274.53C251.739 271.926 253.008 270.229 255.361 268.937C259.065 266.903 259.181 264.593 255.857 259.075C254.114 256.182 254.104 256.179 249.837 257.503C245.682 258.793 245.465 258.755 242.034 256.149C240.094 254.674 238.176 253.713 237.773 254.012C237.37 254.311 237.04 253.913 237.04 253.126C237.04 252.34 234.591 250.546 231.598 249.139C228.605 247.733 225.498 245.669 224.694 244.553C222.788 241.909 213.892 238.836 208.572 238.984C204.106 239.109 183.243 232.219 183.243 230.619C183.243 230.133 182.555 229.728 181.715 229.717C179.961 229.695 174.2 223.909 172.94 220.903C172.474 219.791 170.235 217.23 167.966 215.213C165.696 213.195 162.927 210.019 161.812 208.155C159.512 204.308 154.617 201.188 152.037 201.924C150.545 202.349 150.542 202.92 152.017 206.024C153.648 209.459 157.229 214.234 158.903 215.208C160.279 216.009 161.44 219.748 160.311 219.748C157.734 219.748 149.018 210.244 147.134 205.379C146.036 202.544 143.705 199.101 141.954 197.728C140.203 196.354 139.23 195.231 139.792 195.231C140.716 195.231 137.424 192.752 131.169 188.739C127.965 186.683 124.041 182.981 123.481 181.486C122.444 178.713 121.176 165.558 121.735 163.371C122.066 162.079 121.803 159.589 121.152 157.838C120.275 155.478 120.42 153.858 121.712 151.575C124.171 147.231 123.132 145.381 115.471 140.469C108.797 136.19 107.183 134.3 103.115 126.005C101.955 123.64 100.253 121.24 99.3318 120.672C98.4108 120.105 97.6572 119.273 97.6572 118.824C97.6572 118.375 96.2086 116.382 94.4381 114.395C91.9906 111.648 90.4183 110.782 87.8784 110.782C86.0411 110.782 83.1389 109.965 81.4291 108.966C79.7193 107.967 77.2513 107.15 75.9447 107.15C72.6378 107.15 66.3858 105.593 58.9034 102.907C55.409 101.653 52.0546 100.854 51.4491 101.131C50.8437 101.409 50.2984 102.939 50.2374 104.532C50.1372 107.15 48.4458 108.915 46 108.952C44.5464 108.974 44.9246 106.745 47.0007 103.055C49.3751 98.8345 47.7409 97.0034 44.0477 99.7463C40.1294 102.656 37.9191 106.501 38.6134 109.198C39.0889 111.045 38.6749 111.83 36.9697 112.313C35.7161 112.668 31.7805 114.716 28.2239 116.865C24.6673 119.013 20.9994 120.771 20.0729 120.771C19.1464 120.771 18.1567 121.281 17.8736 121.906C17.5904 122.53 16.9546 121.45 16.4607 119.505C15.9667 117.56 14.777 115.386 13.8169 114.673C12.8568 113.96 12.0713 112.435 12.0713 111.285C12.0713 106.325 10.4742 103.42 7.01724 102.093C5.01028 101.322 3.51272 100.004 3.51272 99.0076C3.51272 98.0511 2.9826 97.0251 2.33467 96.7277C0.939154 96.0872 5.26513 92.6272 7.48636 92.6073C8.32693 92.6001 11.2155 92.0275 13.9053 91.3355C18.1862 90.2341 18.8416 89.6906 19.162 86.976C19.4809 84.274 19.0065 83.6662 15.4766 82.2544C13.2483 81.3631 10.0575 80.7791 8.38592 80.9565C4.27369 81.3929 -0.503052 78.1366 0.0428337 75.2689C0.384598 73.4735 1.06357 73.1462 3.96777 73.3767C5.8992 73.5301 8.85443 74.3246 10.5349 75.1424C13.3747 76.5243 13.6974 76.5206 15.1053 75.0906C15.9385 74.2444 17.2473 73.552 18.0137 73.552C18.7802 73.552 19.4073 72.5304 19.4073 71.2819C19.4073 69.4658 18.7959 69.0117 16.3506 69.0117C14.6695 69.0117 13.294 68.6217 13.294 68.145C13.294 66.735 7.12325 62.5746 5.87909 63.1456C5.25005 63.4344 4.72787 63.1357 4.71868 62.482C4.70951 61.8282 4.38658 60.4203 4.00107 59.3533C3.41854 57.741 4.28476 57.0508 9.12932 55.2671C12.3354 54.0867 15.7838 52.0594 16.7926 50.7621C17.8014 49.4647 21.0187 47.4609 23.9421 46.3091C28.557 44.4908 29.6447 44.3689 32.1971 45.3834C33.814 46.026 36.0768 46.2839 37.2256 45.9565C38.3744 45.6291 40.5735 45.9741 42.1126 46.723C43.6517 47.4719 47.288 48.3332 50.1933 48.6369C53.0986 48.9406 57.4013 49.6966 59.7549 50.3168C62.1085 50.937 66.171 51.2997 68.7827 51.1228C71.8634 50.914 74.6546 51.3554 76.73 52.3795C78.4893 53.2476 80.754 54.0538 81.7627 54.1711C82.7714 54.2884 84.8083 55.4281 86.289 56.7038C89.8391 59.7621 92.955 59.6325 96.7052 56.2705C100.095 53.2316 106.264 51.5053 110.747 52.341C113.353 52.8266 113.591 52.6322 113.06 50.4563C112.657 48.8063 113.072 47.858 114.356 47.492C116.53 46.8725 118.192 48.4071 119.245 52.0047C120.139 55.0608 121.438 55.7609 124.134 54.6402C126.149 53.8026 131.742 54.9652 137.394 57.3969C138.738 57.9756 141.765 58.6859 144.118 58.9753C147.383 59.3769 148.492 59.9947 148.797 61.5815C149.043 62.8651 150.447 63.9926 152.465 64.5266C154.263 65.0026 157.194 66.0021 158.979 66.7478C163.893 68.8011 165.653 68.4343 169.953 64.4605C173.58 61.108 174.244 60.8639 178.263 61.4007C180.666 61.7216 183.293 62.3732 184.102 62.8488C184.91 63.3244 186.608 63.469 187.876 63.1701C189.289 62.8372 191.918 63.5023 194.668 64.8883C199.02 67.0813 199.2 67.0973 200.614 65.4157C201.667 64.1634 202.973 63.8153 205.315 64.1632C209.505 64.7856 213.81 60.992 213.81 56.6768C213.81 54.3045 212.904 53.1541 209.53 51.2432C205.105 48.7364 203.793 45.0327 206.593 42.953C208.969 41.1886 214.655 44.365 214.776 47.5239C214.833 49.0064 215.384 50.4636 216.001 50.7621C216.618 51.0606 217.785 52.8117 218.593 54.6536C219.585 56.9137 220.901 58.0945 222.641 58.2858C224.312 58.4695 225.701 59.6364 226.588 61.6022C228.758 66.4109 231.717 67.0444 235.945 63.6057C237.892 62.0225 239.485 60.0033 239.485 59.1185C239.485 56.9222 240.408 56.4108 243.342 56.9807C245.34 57.3686 245.698 57.9736 245.146 60.0249C244.766 61.4329 244.981 62.8257 245.622 63.12C246.874 63.695 246.613 66.7449 245.223 67.7776C244.757 68.1234 244.376 69.3598 244.376 70.5252C244.376 72.2383 243.723 72.6439 240.967 72.6439C239.091 72.6439 235.378 73.475 232.714 74.4907C230.05 75.5064 226.765 76.1363 225.415 75.8905C222.286 75.3211 218.866 76.7788 220.544 77.9663C221.211 78.438 222.812 78.9658 224.101 79.1391C225.39 79.3125 226.656 79.9249 226.914 80.5C227.432 81.6572 220.745 84.4486 217.455 84.4486C211.469 84.4486 205.952 91.1809 204.629 100.098C204.205 102.962 203.346 105.54 202.72 105.827C201.274 106.491 201.287 109.028 202.745 110.74C203.699 111.86 204.332 111.876 206.923 110.846C211.532 109.015 213.81 110.135 213.81 114.234C213.81 118.309 214.745 119.354 217.096 117.905C219.687 116.308 224.452 118.371 226.474 121.964C227.981 124.643 228.903 125.107 233.688 125.594C242.142 126.454 245.916 128.01 244.989 130.251C244.564 131.28 243.978 132.734 243.687 133.483C243.375 134.286 245.037 135.895 247.735 137.402L252.312 139.959L255.068 137.578C257.035 135.881 257.825 134.041 257.825 131.162C257.825 128.943 257.874 127.025 257.934 126.9C259.53 123.553 259.687 118.106 258.288 114.653C256.967 111.393 256.88 109.187 257.887 104.505C260.072 94.3546 260.094 94.3094 262.44 95.1774C263.601 95.6065 267.714 96.4621 271.58 97.0786C275.906 97.7683 278.61 98.6694 278.61 99.4208C278.61 100.093 279.196 100.787 279.912 100.964C280.628 101.142 281.524 103.006 281.904 105.109C282.507 108.447 283.272 109.226 287.955 111.264C293.85 113.83 295.728 113.603 295.728 110.328C295.728 107.369 297.745 106.668 298.64 109.317C299.041 110.501 301.575 114.169 304.273 117.466C306.97 120.764 309.177 123.703 309.177 123.997C309.177 124.842 312.001 126.548 315.945 128.087C319.157 129.34 319.563 129.963 319.509 133.566C319.425 139.259 314.418 143.472 307.736 143.472C305.148 143.472 302.021 143.003 300.786 142.431C296.138 140.275 285.946 144.502 285.946 148.586C285.946 149.94 286.463 150.606 287.238 150.25C287.949 149.924 289.76 149.886 291.263 150.167C293.239 150.535 293.982 151.333 293.945 153.048C293.903 155 294.732 155.636 298.632 156.642C305.601 158.44 306.223 159.246 303.131 162.471C301.396 164.28 299.403 165.265 297.478 165.265C294.036 165.265 293.804 164.596 296.321 161.927C297.937 160.213 297.927 159.941 296.229 159.457C292.952 158.523 283.778 163.197 274.148 170.706C271.035 173.134 267.924 174.969 265.985 175.521C264.782 175.864 263.906 177.146 263.861 178.63C263.639 185.802 263.009 186.966 257.237 190.868C249.327 196.213 247.672 198.862 248.59 204.699C249.078 207.802 248.763 210.441 247.674 212.363C246.031 215.266 245.988 215.279 243.262 213.64C240.784 212.149 240.665 211.731 242.068 209.445C243.016 207.899 243.175 206.664 242.473 206.289C241.838 205.95 240.713 204.856 239.973 203.857C238.041 201.252 230.262 200.893 226.814 203.25C224.626 204.746 222.776 204.99 215.408 204.759C205.122 204.436 199.823 206.045 196.464 210.511C192.617 215.625 195.203 227.564 200.375 228.568C201.712 228.828 202.806 229.382 202.806 229.8C202.806 230.725 209.832 232.244 213.202 232.047C214.545 231.969 217.95 230.765 220.769 229.373C223.588 227.98 226.477 227.107 227.188 227.434C229.075 228.3 228.769 231.153 226.648 232.461C222.269 235.16 225.472 238.817 232.215 238.817C238.674 238.817 243.538 242.334 242.789 246.462C242.484 248.145 241.904 249.919 241.5 250.405C240.206 251.96 245.158 254.48 248.131 253.779C249.621 253.428 252.874 253.64 255.361 254.249C259.161 255.18 260.487 255.125 263.672 253.902C265.756 253.102 268.438 251.219 269.631 249.718C270.825 248.217 272.23 246.989 272.753 246.989C274.123 246.989 273.264 250.203 271.464 251.814C270.419 252.749 270.344 253.372 271.226 253.777C272.98 254.582 277.686 253.39 279.324 251.726C280.373 250.661 281.942 250.523 286.665 251.08C289.968 251.47 294.891 251.705 297.605 251.603C303.211 251.391 308.079 253.676 311.019 257.898C312.404 259.886 314.422 260.818 319.859 261.98C328.045 263.729 333.021 266.803 336.239 272.1C337.78 274.636 339.669 276.167 342.003 276.771C343.913 277.265 347.457 278.962 349.879 280.542C354.083 283.283 354.503 283.365 359.122 282.337C365.963 280.815 371.805 281.869 375.656 285.322C377.423 286.906 378.868 288.607 378.868 289.103C378.868 289.599 380.065 290.951 381.528 292.107C384.08 294.125 384.114 294.383 382.35 298.522C380.809 302.14 380.067 302.797 377.744 302.603C375.844 302.445 374.773 302.944 374.333 304.192C373.981 305.193 373.115 306.013 372.409 306.013C371.702 306.013 371.47 306.269 371.891 306.582C372.313 306.895 371.751 308.427 370.643 309.987C369.536 311.547 368.227 315.267 367.735 318.254C366.744 324.281 362.941 327.806 357.432 327.806C355.601 327.806 353.685 328.697 352.409 330.143C351.082 331.648 349.568 332.329 348.159 332.055C343.623 331.174 342.468 332.931 339.2 345.681C338.479 348.496 336.209 351.415 334.742 351.415C334.056 351.415 332.351 353.458 330.954 355.955C329.556 358.452 327.684 360.495 326.792 360.495C325.9 360.495 323.759 359.372 322.034 357.998C319.382 355.887 318.711 355.712 317.692 356.863C317.029 357.612 316.755 359.656 317.082 361.404C317.454 363.394 316.884 365.77 315.555 367.76C313.838 370.332 312.736 370.938 309.777 370.938C305.905 370.938 304.01 371.827 302.795 374.214C302.386 375.017 300.29 375.936 298.139 376.255C294.261 376.831 294.234 376.873 295.063 380.981C296.03 385.77 294.911 387.207 288.717 389.129C284.896 390.315 284.63 390.652 285.356 393.39C285.79 395.025 286.437 397.482 286.793 398.849C287.23 400.521 286.345 402.893 284.089 406.096C282.246 408.715 280.098 412.497 279.316 414.502C277.606 418.89 274.195 419.879 272.997 416.335ZM216.868 168.897C217.095 168.897 218.195 166.854 219.312 164.357C220.428 161.86 221.738 159.817 222.222 159.817C224.027 159.817 226.036 162.065 226.036 164.084C226.036 165.233 226.623 166.173 227.339 166.173C229.778 166.173 233.372 164.297 233.372 163.024C233.372 162.326 234.472 161.496 235.817 161.179C240.176 160.151 238.422 158.156 230.981 155.675C225.696 153.914 223.406 152.594 222.628 150.861C221.764 148.936 220.748 148.455 217.377 148.378C215.079 148.325 211.788 147.992 210.064 147.637C205.848 146.769 200.111 149.958 202.563 151.807C203.439 152.466 206.19 153.006 208.677 153.006C212.393 153.006 213.266 153.359 213.578 154.988C213.787 156.078 213.099 158.203 212.05 159.71C211 161.217 210.142 163.315 210.142 164.371C210.142 167.333 212.52 170.018 214.615 169.422C215.627 169.133 216.641 168.897 216.868 168.897ZM190.051 137.234C189.604 134.921 189.127 131.926 188.992 130.577C188.614 126.819 186.597 125.797 182.461 127.268C178.21 128.782 177.295 131.25 180.739 131.919C183.155 132.388 183.928 134.261 183.415 138.402C183.297 139.359 184.418 141.105 185.907 142.283C188.322 144.191 188.737 144.262 189.74 142.931C190.358 142.11 190.498 139.546 190.051 137.234ZM152.088 107.958C161.129 102.419 161.795 101.312 156.65 100.383C154.801 100.049 152.401 98.9241 151.316 97.8837C148.195 94.8897 146.16 96.646 147.02 101.591C147.803 106.093 147.18 107.4 143.813 108.323C141.022 109.087 141.04 111.69 143.835 111.69C145.024 111.69 148.738 110.011 152.088 107.958ZM132.278 85.2207C133.746 84.6465 135.361 83.7271 135.865 83.1776C136.497 82.4889 137.146 82.5994 137.954 83.5329C139.301 85.0894 141.026 84.1767 143.373 80.6658C144.153 79.5 146.015 78.4157 147.511 78.2561C149.176 78.0785 150.231 77.3289 150.231 76.3242C150.231 74.2077 148.205 73.0051 142.935 71.9947C139.455 71.3274 137.703 71.571 133.154 73.3538C123.217 77.2484 119.551 81.1586 126.201 80.7695C130.696 80.5064 131.009 80.75 129.039 82.9824C126.33 86.0531 127.709 87.0065 132.278 85.2207ZM1029.05 413.871C1025.93 411.017 1027.85 408.521 1038.17 402.039C1042.08 399.58 1044.9 399.977 1044.61 402.947C1044.26 406.662 1044.07 407.164 1043.24 406.547C1042.82 406.237 1041.68 406.578 1040.7 407.303C1039.73 408.029 1037.83 408.622 1036.5 408.622C1035.16 408.622 1034.39 409.012 1034.79 409.488C1035.83 410.744 1034.25 414.774 1032.51 415.269C1031.7 415.5 1030.14 414.871 1029.05 413.871ZM1039.71 405.908C1040.13 405.394 1039.64 405.241 1038.55 405.551C1036.44 406.155 1036.05 406.806 1037.81 406.806C1038.44 406.806 1039.29 406.402 1039.71 405.908ZM955.788 401.906C953.695 401.123 953.022 400.216 953.331 398.595C953.564 397.368 953.839 396.3 953.942 396.223C954.336 395.925 957.92 395.699 960.621 395.802C963.106 395.896 963.4 396.309 963.066 399.233C962.644 402.928 960.562 403.693 955.788 401.906ZM1051.58 392.618C1050.72 391.931 1050.37 391.369 1050.82 391.369C1051.26 391.369 1050.98 390.793 1050.2 390.088C1049.17 389.17 1049.15 388.632 1050.1 388.192C1050.84 387.854 1051.19 386.397 1050.89 384.953C1050.33 382.34 1050.34 382.335 1053.24 383.897C1054.83 384.761 1056.16 386.144 1056.18 386.971C1056.21 388.023 1056.95 388.332 1058.67 388C1061.91 387.37 1061.78 389.058 1058.39 391.573C1055.09 394.028 1053.63 394.25 1051.58 392.618ZM953.517 385.399C950.364 384.587 948.798 384.562 947.569 385.306C945.854 386.344 944.15 385.218 938.35 379.215C937.069 377.889 934.707 376.559 933.101 376.26C931.385 375.94 930.261 375.106 930.375 374.235C931.137 368.388 928.372 366.991 922.95 370.484C919.325 372.819 918.24 372.771 916.934 370.22C915.122 366.679 912.095 365.518 904.753 365.547C899.88 365.566 895.673 366.321 890.265 368.146C883.95 370.277 881.541 370.635 876.205 370.236C872.663 369.97 867.444 370.203 864.608 370.753C861.771 371.303 859.082 371.479 858.631 371.144C858.18 370.81 857.651 368.864 857.455 366.821C857.259 364.777 856.466 362.54 855.694 361.848C854.921 361.156 854.01 359.241 853.669 357.592C853.328 355.943 852.07 353.776 850.874 352.777C849.214 351.391 848.939 350.329 849.713 348.291C850.35 346.614 850.237 345.183 849.411 344.443C848.675 343.785 848.51 342.56 849.037 341.665C849.555 340.785 849.896 339.767 849.794 339.403C849.501 338.357 856.341 336.036 861.443 335.451C872.888 334.137 874.494 333.658 876.51 330.955C877.616 329.473 879.492 328.12 880.679 327.949C881.867 327.779 884.373 326.362 886.25 324.802C889.092 322.44 889.972 322.156 891.51 323.104C895.431 325.521 898.271 325.039 904.249 320.945C907.474 318.736 911.075 316.924 912.252 316.919C913.429 316.913 914.392 316.537 914.392 316.081C914.392 315.189 915.843 315.258 920.25 316.357C922.714 316.971 923.009 317.567 922.695 321.296C922.341 325.513 922.369 325.546 927.841 327.455C937.076 330.676 939.958 330.904 941.164 328.509C941.737 327.373 941.741 326.223 941.173 325.953C939.817 325.308 941.644 320.302 943.392 319.869C944.139 319.685 945.104 320.362 945.538 321.376C945.971 322.389 948.081 324.129 950.226 325.241C955.287 327.865 955.92 328.609 955.943 331.947C955.957 334.059 957.261 335.619 961.373 338.446C964.35 340.492 967.037 341.978 967.346 341.749C968.135 341.163 975.524 347.964 975.524 349.276C975.524 349.87 976.16 350.513 976.938 350.706C978.995 351.215 980.085 358.543 978.733 362.766C978.093 364.763 976.284 367.821 974.713 369.56C973.142 371.299 971.856 373.658 971.856 374.801C971.856 376.861 963.464 384.469 959.706 385.816C958.655 386.193 955.87 386.005 953.517 385.399ZM552.367 363.568C550.066 361.508 546.354 353.817 544.311 346.875C543.944 345.626 542.966 344.196 542.139 343.697C539.609 342.169 536.963 337.547 536.252 333.411C535.88 331.249 534.74 328.796 533.72 327.958C530.453 325.277 530.011 318.054 532.679 310.948C534.765 305.392 534.874 304.116 533.498 301.414C532.625 299.698 530.462 295.465 528.692 292.007C526.921 288.549 524.586 285.238 523.503 284.65C521.896 283.777 521.678 282.546 522.322 277.972L523.111 272.365L519.543 271.835C517.581 271.543 514.86 270.533 513.496 269.59C512.133 268.646 510.503 267.874 509.874 267.874C509.246 267.874 508.415 267.262 508.028 266.512C507.107 264.73 501.202 264.762 497.731 266.568C494.831 268.076 489.28 267.829 481.937 265.865C478.962 265.069 477.263 265.075 474.85 265.892C468.685 267.978 464.772 267.25 458.962 262.935C455.977 260.718 453.214 257.96 452.823 256.806C452.431 255.652 450.229 253.793 447.929 252.675C441.84 249.716 440.059 246.608 441.289 241.087C441.845 238.59 442.333 234.177 442.373 231.28C442.458 225.183 444.527 221.657 451.007 216.57C453.551 214.572 456.004 212.018 456.458 210.894C456.912 209.771 457.782 208.851 458.392 208.851C460.776 208.851 467.197 202.7 469.766 197.955C472.679 192.576 472.33 192.685 482.58 193.935C486.805 194.45 488.799 194.192 492.489 192.651C496.264 191.076 499.523 190.678 510.286 190.48C522.752 190.249 523.515 190.34 524.429 192.166C525.034 193.374 524.746 195.024 523.657 196.583C521.013 200.368 521.392 200.679 528.66 200.679C532.368 200.679 536.357 201.028 537.524 201.455C538.692 201.882 542.243 202.848 545.416 203.602C550.815 204.885 551.316 204.865 553.247 203.28C555.533 201.404 557.568 201.17 560.755 202.419C566.639 204.724 572.13 206.098 577.022 206.491C580.002 206.731 583.958 207.204 585.812 207.542C587.667 207.881 590.701 207.691 592.554 207.121C598.227 205.376 603.42 196.044 600.456 192.922C598.921 191.305 590.063 189.768 583.663 190.008C577.697 190.231 577.54 190.171 577.136 187.512C576.908 186.014 576.211 184.329 575.587 183.768C573.394 181.799 575.851 180.175 584.912 177.606C593.433 175.19 594.493 175.087 600.475 176.095C612.054 178.047 613.553 178.187 616.659 177.608C621.412 176.722 620.45 173.938 613.618 168.81C610.256 166.287 607.505 163.479 607.505 162.57C607.505 160.932 605.236 159.817 601.903 159.817C600.783 159.817 600.169 160.803 600.169 162.604C600.169 164.975 599.758 165.348 597.418 165.101C595.625 164.912 594.528 164.08 594.266 162.712C594.046 161.558 593.079 160.389 592.117 160.115C589.471 159.361 584.683 162.117 583.727 164.945C583.261 166.325 581.818 168.006 580.52 168.681C579.111 169.414 578.161 170.97 578.161 172.545C578.161 175.818 573.972 178.886 569.503 178.886C566.029 178.886 564.712 180.264 564.712 183.901C564.712 187.097 562.908 187.342 558.706 184.715C556.219 183.161 554.291 180.709 553.036 177.503C551.333 173.153 550.56 172.439 545.633 170.667C542.608 169.58 539.272 167.715 538.221 166.523C535.803 163.783 531.7 163.617 531.7 166.26C531.7 169.294 536.101 173.066 542.074 175.152C547.979 177.213 548.633 178.023 545.8 179.77C544.813 180.378 544.052 181.143 544.111 181.47C544.727 184.933 540.897 185.439 539.751 182.046C539.325 180.787 537.753 178.681 536.256 177.366C533.06 174.559 521.708 166.173 521.104 166.173C520.875 166.173 518.634 166.99 516.125 167.989C513.616 168.988 509.798 169.805 507.64 169.805C503.693 169.805 499.911 172.379 499.911 175.066C499.911 176.279 496.94 178.981 495.676 178.918C495.315 178.9 494.482 178.886 493.823 178.886C493.164 178.886 491.439 180.622 489.991 182.745C487.234 186.783 485.407 188.15 483.772 187.4C483.237 187.154 481.242 187.637 479.338 188.472C476.133 189.878 475.593 189.881 472.036 188.515C467.356 186.717 465.798 184.718 465.894 180.634C465.935 178.923 465.714 176.477 465.405 175.198C465.095 173.918 465.313 171.924 465.889 170.767C466.837 168.864 467.435 168.723 472.115 169.298C485.653 170.961 485.013 171.093 485.952 166.443C486.927 161.614 484.597 157.733 480.436 157.256C479.043 157.097 477.903 156.444 477.903 155.806C477.903 154.013 482.223 150.736 484.587 150.736C489.094 150.736 495.097 147.608 507.052 139.028C518.84 130.568 519.474 129.923 519.474 126.378C519.474 121.081 522.609 122.276 523.624 127.96L524.402 132.315L532.43 132.872C538.664 133.304 541.121 133.106 543.429 131.982C545.329 131.058 547.701 130.729 550.007 131.072C554.121 131.683 554.961 131.031 556.837 125.767C558.103 122.217 558.259 122.133 563.562 122.133C568.873 122.133 569 122.064 569.397 118.958C569.917 114.885 571.255 113.755 577.098 112.455C584.018 110.916 585.517 109.216 581.794 107.13C577.654 104.811 573.437 104.392 568.061 105.768C562.453 107.202 561.966 106.761 561.453 99.7859C561.134 95.4293 561.669 93.7393 564.742 89.4002C569.147 83.1811 569.985 78.7695 566.854 78.2882C563.579 77.7849 557.541 83.3508 559.199 85.3435C559.919 86.2081 550.586 93.5291 548.765 93.5291C547.539 93.5291 545.117 98.9544 545.519 100.8C545.683 101.552 546.767 103.175 547.928 104.407C550.209 106.825 550.758 111.254 548.883 112.114C548.246 112.406 545.918 115.086 543.71 118.07C541.501 121.054 539.081 123.495 538.332 123.495C536.311 123.495 532.923 120.409 532.923 118.569C532.923 116.353 529.056 111.69 527.218 111.69C526.388 111.69 525.268 112.201 524.731 112.825C524.193 113.449 522.816 114.505 521.671 115.171C519.864 116.222 519.099 116.009 515.864 113.55C513.814 111.993 512.138 109.794 512.138 108.662C512.138 107.531 511.499 106.131 510.719 105.552C509.939 104.972 509.402 102.375 509.526 99.7789C509.768 94.6989 510.524 93.944 518.557 90.7658C523.112 88.9635 528.014 84.256 529.863 79.9083C530.394 78.6598 531.85 77.1042 533.098 76.4517C534.347 75.799 535.368 74.4922 535.368 73.5476C535.368 72.603 538.005 69.4594 541.228 66.5617C544.452 63.6641 548.05 59.7665 549.225 57.9004C551.555 54.2009 555.258 52.2175 558.246 53.0691C559.293 53.3672 562.963 52.4496 566.404 51.0299C571.106 49.0895 574.404 48.4261 579.689 48.3574C587.649 48.254 588.795 49.5471 584.061 53.2894L581.403 55.391H585.807C589.048 55.391 590.845 55.9904 592.615 57.6611C594.305 59.2576 596.208 59.9312 599.026 59.9312C601.23 59.9312 604.077 60.6326 605.352 61.4898C606.627 62.3469 609.622 63.8793 612.007 64.8949C614.938 66.1436 616.848 67.8505 617.902 70.1657C619.324 73.2894 619.246 73.7016 617.01 74.8644C615.663 75.5655 613.742 75.9061 612.743 75.6213C611.744 75.3365 610.492 75.6258 609.96 76.2638C608.615 77.88 602.02 75.6669 600.055 72.9401C598.791 71.1857 595.179 69.9509 590.999 69.8439C590.327 69.8267 589.467 70.7561 589.09 71.9093C588.563 73.5171 589.276 74.491 592.147 76.0859C596.264 78.3736 597.508 80.0786 597.638 83.6092C597.731 86.1376 602.09 89.5992 605.06 89.5025C606.068 89.4697 607.073 88.5014 607.293 87.3508C607.535 86.0837 608.962 84.9003 610.912 84.3496C612.683 83.8496 615.529 82.2842 617.237 80.871C620.036 78.5551 623.732 77.6596 632.264 77.2303C634.045 77.1407 633.15 74.7206 630.735 73.098C627.797 71.1232 627.599 68.7464 630.211 66.8065C633.047 64.7004 634.403 65.0613 634.403 67.9221C634.403 73.074 640.975 74.4278 644.384 69.978C647.152 66.3644 662.524 60.8768 662.524 63.5022C662.524 65.4933 667.673 65.5164 670.508 63.5381C672.56 62.1062 674.256 61.6861 676.383 62.0825C678.699 62.5143 680.232 61.9866 683.191 59.739C686.857 56.9537 687.211 56.8783 692.086 57.8446C694.878 58.3981 697.843 58.6572 698.674 58.4203C700.61 57.8687 701.612 55.0544 701.633 50.11C701.643 47.9546 702.201 45.4255 702.875 44.4898C703.717 43.3223 703.685 42.5973 702.774 42.1792C701.983 41.8164 702.971 40.8811 705.216 39.8673C707.289 38.9309 708.985 37.7501 708.985 37.2434C708.985 35.7883 715.853 36.1709 717.587 37.7225C718.772 38.7834 718.809 39.3781 717.737 40.1743C715.692 41.6926 716.012 49.0289 718.261 52.2128C721.143 56.2937 721.364 63.7177 718.754 68.7827C716.734 72.7029 716.202 73.0736 712.951 72.8321C707.432 72.4221 705.626 74.6495 708.212 78.6768C709.794 81.1413 710.774 81.7447 712.384 81.245C713.541 80.8857 716.138 80.3234 718.155 79.9955C722.625 79.2689 729.771 71.9162 729.771 68.0438C729.771 64.8387 732.134 60.8393 734.027 60.8393C734.94 60.8393 735.527 63.0093 735.672 66.9285C735.796 70.2775 736.413 73.4 737.042 73.8674C738.61 75.0319 746.888 72.032 746.888 70.2992C746.888 69.556 746.061 68.0103 745.05 66.8645C744.039 65.7187 742.994 63.1052 742.729 61.0568C742.108 56.2676 741.298 55.3791 737.754 55.597C733.962 55.8301 728.779 53.7291 727.863 51.5876C725.811 46.7857 725.349 38.0686 727.029 35.8399C728.115 34.3977 728.411 34.494 729.922 36.7832C730.847 38.1854 732.43 39.6058 733.439 39.9396C744.226 43.51 745.052 44.1327 745.092 48.723C745.143 54.531 746.098 55.6194 749.988 54.303C752.37 53.497 753.005 52.6005 753.018 50.024C753.028 48.2313 753.333 45.94 753.697 44.9322C754.162 43.6472 752.907 41.8953 749.495 39.0673C745.644 35.8755 744.874 34.6957 745.802 33.4083C746.446 32.5137 747.367 31.7514 747.848 31.7142C753.669 31.2648 757.099 29.6083 757.248 27.1749C757.266 26.8886 758.656 25.1518 760.337 23.3153C762.283 21.1896 764.047 20.1587 765.19 20.4786C766.179 20.755 766.652 20.7321 766.242 20.4276C765.832 20.1232 767.774 17.9747 770.558 15.653C781.023 6.92602 780.161 7.31456 787.99 7.79498C794.238 8.17844 795.506 8.60099 798.497 11.2958C800.951 13.5069 802.591 14.2259 804.386 13.8774C808.242 13.1284 810.426 10.215 809.239 7.40153C808.68 6.07754 807.892 3.87056 807.487 2.49714C806.754 0.00944095 806.777 0 813.476 0C819.692 0 820.261 0.177796 820.996 2.35318C821.679 4.37425 822.243 4.61605 824.993 4.06648C831.008 2.86437 836.356 3.23463 837.643 4.9422C838.314 5.83269 839.939 7.36079 841.255 8.338C843.471 9.98338 843.506 10.2755 841.729 12.2898C840.673 13.4861 839.81 15.2673 839.81 16.2481C839.81 18.3408 838.108 19.6277 831.336 22.6568C828.599 23.8809 826.36 25.384 826.36 25.9971C826.36 26.6102 825.563 27.704 824.588 28.4279C823.134 29.5077 823.096 30.0286 824.376 31.328C825.838 32.8136 826.234 32.7718 830.751 30.6543C833.399 29.4125 836.3 27.7395 837.198 26.9364C838.672 25.617 839.256 25.6085 843.25 26.8481C845.682 27.6026 847.966 28.5172 848.325 28.8804C848.685 29.2436 850.769 30.6322 852.955 31.966C856.031 33.842 857.83 34.2872 860.903 33.932C863.087 33.6795 868.271 34.0705 872.423 34.8009C879.805 36.0994 880.068 36.0807 884.279 33.9553C888.872 31.6374 891.161 31.2165 891.161 32.6898C891.161 33.1892 891.923 33.5978 892.855 33.5978C895.629 33.5978 898.325 37.6079 898.729 42.3362L899.108 46.7645L905.951 46.4717C909.812 46.3065 915.726 46.8119 919.521 47.6311C925.764 48.9792 930.993 48.8021 929.73 47.2853C929.432 46.9273 929.946 45.5507 930.871 44.2263C931.796 42.9019 932.731 40.9298 932.948 39.8439C933.165 38.758 934.286 37.4306 935.438 36.8942C937.113 36.1144 938.257 36.4339 941.143 38.4873C944.777 41.0732 952.838 42.4129 954.286 40.672C955.263 39.4984 962.061 40.7813 964.759 42.6484C966.011 43.515 967.264 45.1036 967.543 46.1787C968.288 49.0534 969.028 49.666 972.997 50.6935C975.87 51.4374 977.511 51.2737 981.206 49.8749C988.426 47.1409 991.809 47.8196 992.831 52.2072C993.359 54.4747 997.934 56.3407 1004.11 56.8087C1006.72 57.0064 1010.74 57.9942 1013.05 59.0038C1015.35 60.0133 1017.92 60.8393 1018.76 60.8393C1019.6 60.8393 1022.15 61.8608 1024.43 63.1094C1029.65 65.9719 1035.43 66.1895 1035.43 63.5238C1035.43 62.5032 1036.78 60.5934 1038.42 59.2798L1041.4 56.8916L1047.7 59.3195C1051.16 60.6548 1054.96 61.7473 1056.14 61.7473C1057.32 61.7473 1059.33 62.6064 1060.61 63.6564C1062.89 65.5272 1069.67 68.5681 1069.67 67.7202C1069.67 67.4837 1071.25 67.7001 1073.19 68.2012C1075.93 68.9103 1076.86 69.8237 1077.41 72.3212C1077.79 74.0861 1078.71 76.0644 1079.44 76.7174C1080.83 77.9669 1085.56 77.5444 1085.56 76.1702C1085.56 74.8381 1090.15 75.2695 1092.2 76.795C1095.03 78.8933 1094.56 80.9611 1090.53 84.2369L1086.95 87.1541L1077.74 83.5312C1072.68 81.5386 1067.7 79.9083 1066.69 79.9083C1065.67 79.9083 1064.02 81.0847 1063.02 82.5224C1062.02 83.9602 1060.29 85.3957 1059.18 85.7124C1057.51 86.1876 1057.25 87.3134 1057.66 92.1543L1058.17 98.0203L1052.3 99.5863C1049.08 100.448 1046.44 101.436 1046.44 101.782C1046.44 102.129 1045.09 102.664 1043.45 102.971C1041.8 103.278 1039.73 104.65 1038.84 106.02C1037.43 108.211 1036.54 108.512 1031.52 108.512C1026.57 108.512 1025.32 108.923 1022.11 111.588C1018.83 114.311 1017.9 114.602 1013.97 114.128C1008.16 113.427 1004.86 114.944 1005.55 118.001C1007.97 128.722 1006.3 133.945 999.608 136.637C997.457 137.502 994.873 139.495 993.864 141.067C991.792 144.297 988.832 144.835 988.122 142.11C987.016 137.864 987.537 131.588 989.116 130.143C990.249 129.106 990.303 128.82 989.279 129.276C988.439 129.651 987.751 129.525 987.751 128.997C987.751 127.934 990.276 125.585 995.393 121.888C997.242 120.551 998.755 118.851 998.755 118.109C998.755 117.368 1000.64 115.313 1002.94 113.544C1005.24 111.775 1007.3 109.511 1007.52 108.512C1007.86 106.995 1007.32 106.733 1004.26 106.923C1002.24 107.048 999.395 106.69 997.937 106.128C995.778 105.296 994.641 105.446 991.824 106.938C987.527 109.212 984.107 111.987 982.322 114.647C980.807 116.906 975.968 117.566 974.566 115.706C972.844 113.42 967.828 112.699 964.289 114.228C961.437 115.46 960.339 115.487 956.023 114.429C952.321 113.522 950.345 113.462 948.308 114.195C946.802 114.737 944.18 115.402 942.481 115.672C938.183 116.355 926.557 127.859 925.394 132.58C924.459 136.377 925.338 137.561 929.53 138.153C931.047 138.367 932.465 139.956 933.693 142.817C935.305 146.573 935.336 148.021 933.922 153.586C933.024 157.122 931.634 160.502 930.835 161.096C930.035 161.69 928.53 163.381 927.49 164.855C925.093 168.253 915.752 175.253 913.615 175.253C912.724 175.253 909.783 175.911 907.079 176.714C902.876 177.964 901.607 179.041 898.329 184.141C894.877 189.513 894.641 190.405 895.955 193.105C897.238 195.739 897.118 196.339 894.963 198.057L892.512 200.011L891.721 197.673C891.287 196.386 891.293 194.899 891.735 194.367C892.619 193.305 889.664 190.69 887.581 190.69C886.265 190.69 885.92 189.853 885.953 186.744C885.968 185.418 885.302 185.168 882.759 185.545C875.032 186.691 874.665 186.649 874.265 184.561C874.031 183.339 873.021 182.518 871.754 182.518C869.402 182.518 861.817 187.899 861.817 189.567C861.817 190.99 865.838 192.506 869.612 192.506C874.301 192.506 874.586 194.06 870.459 197.125C866.919 199.754 866.746 200.209 867.318 205.405C867.747 209.309 868.607 211.344 870.283 212.424C872.574 213.899 872.579 214.05 870.468 217.527C867.124 223.033 857.655 230.335 852.964 231.027C850.773 231.35 846.789 232.383 844.112 233.323C841.435 234.263 838.705 234.785 838.045 234.482C836.702 233.865 829.336 234.073 826.055 234.82C822.514 235.626 823.578 244.66 827.489 246.989C829.605 248.25 832.454 252.622 832.696 254.979C833.044 258.378 829.666 262.231 825.687 262.973C823.133 263.449 821.551 262.785 816.534 259.128C813.199 256.697 810.469 254.17 810.468 253.512C810.466 252.746 809.269 252.42 807.132 252.604C803.523 252.915 800.048 256.662 801.845 258.305C802.413 258.823 803.578 261 804.433 263.14C805.289 265.281 807.189 267.995 808.656 269.17C812.701 272.411 816.966 277.878 816.006 278.591C815.538 278.939 813.561 277.794 811.614 276.046C809.667 274.299 807.043 272.052 805.784 271.053C801.342 267.529 800.407 265.055 798.732 252.4C797.789 245.276 795.374 242.066 791.976 243.417C789.486 244.406 787.235 243.876 787.235 242.3C787.235 241.777 785.913 240.182 784.296 238.755C782.679 237.327 781.136 235.671 780.868 235.073C780.6 234.475 776.833 233.665 772.498 233.273C764.796 232.577 764.537 232.623 761.138 235.278C759.225 236.772 755.534 238.991 752.937 240.209C748.202 242.429 745.498 245.086 744.798 248.208C744.592 249.128 743.602 250.751 742.599 251.815C741.596 252.879 740.774 254.299 740.774 254.97C740.774 256.893 732.469 262.996 731.262 261.961C730.687 261.467 729.485 258.817 728.591 256.07C727.697 253.323 725.671 249.653 724.089 247.914C722.507 246.175 721.212 243.621 721.212 242.238C721.212 240.856 720.672 239.725 720.013 239.725C719.353 239.725 718.467 238.7 718.043 237.447C717.577 236.066 716.123 234.954 714.352 234.624C712.722 234.321 711.431 233.405 711.431 232.554C711.431 230.866 702.163 224.73 697.743 223.492C696.193 223.058 691.931 222.435 688.271 222.107C679.276 221.301 676.159 220.695 670.826 218.711C668.331 217.783 664.856 217.024 663.104 217.024C658.067 217.024 655.205 215.387 652.723 211.086C650.379 207.026 649.065 206.44 641.128 205.915C636.859 205.633 636.768 206.925 640.638 212.881C641.916 214.848 642.962 217.197 642.962 218.102C642.962 219.325 643.904 219.748 646.63 219.748C649.699 219.748 650.298 220.108 650.298 221.953C650.298 226.41 657.487 228.794 660.079 225.196C661.573 223.124 666.192 222.724 666.192 224.668C666.192 225.376 668.118 226.84 670.472 227.92C672.825 229.001 674.736 230.362 674.718 230.946C674.659 232.835 666.202 238.846 660.93 240.746C658.108 241.763 654.975 242.908 653.966 243.29C652.957 243.672 649.106 244.486 645.407 245.098C641.709 245.711 637.534 246.624 636.13 247.129C634.726 247.634 631.995 247.911 630.06 247.745C627.174 247.497 626.394 246.898 625.712 244.402C625.255 242.729 622.946 239.869 620.581 238.046C618.216 236.222 615.42 233.301 614.367 231.553C613.315 229.805 609.52 224.288 605.935 219.294C600.422 211.614 598.958 210.213 596.447 210.213C592.258 210.213 591.984 212.848 595.789 216.552C597.833 218.543 598.946 220.78 598.946 222.897C598.946 224.696 599.798 227.133 600.838 228.313C601.879 229.492 602.985 231.501 603.297 232.775C603.608 234.05 605.507 236.431 607.518 238.066C609.685 239.828 611.173 242.035 611.173 243.489C611.173 245.486 611.967 246.135 615.452 246.989C617.806 247.566 619.776 248.517 619.831 249.103C619.885 249.688 620.023 251.802 620.136 253.8C620.337 257.325 620.46 257.424 624.316 257.147C626.502 256.99 628.29 257.282 628.29 257.796C628.29 259.78 632.805 260.61 636.411 259.289C638.333 258.585 641.503 257.717 643.456 257.36C646.945 256.722 646.993 256.764 646.189 259.75C645.739 261.422 644.909 263.015 644.344 263.289C643.779 263.564 642.55 264.887 641.611 266.229C639.725 268.928 629.97 277.4 619.968 285.026C611.128 291.765 609.677 294.536 611.744 300.737C612.628 303.389 614.649 308.146 616.236 311.309L619.12 317.06L614.229 320.149C611.54 321.848 608.376 323.245 607.199 323.252C606.022 323.259 605.06 323.674 605.06 324.174C605.06 324.673 604.293 325.082 603.356 325.082C600.893 325.082 600.119 327.283 600.967 331.874C601.684 335.761 601.556 335.967 597.273 337.844C594.833 338.913 593.129 340.139 593.486 340.569C593.843 340.998 591.945 344.584 589.268 348.539C582.478 358.568 571.127 364.824 562.109 363.506C560.341 363.248 558.521 363.487 558.063 364.036C556.863 365.479 554.264 365.265 552.367 363.568ZM660.053 190.727C662.147 187.821 660.184 179.063 656.838 176.382C655.258 175.116 653.966 173.347 653.966 172.45C653.966 171.554 653.416 170.568 652.743 170.259C649.68 168.853 651.765 167.786 656.479 168.346L661.438 168.935L661.064 164.675C660.739 160.97 660.189 160.208 656.839 158.823C653.301 157.36 652.351 157.339 645.155 158.558C638.795 159.635 636.932 160.374 635.251 162.488C632.534 165.904 632.637 168.154 635.626 170.713C636.971 171.865 638.071 173.548 638.071 174.453C638.071 175.358 639.684 177.462 641.655 179.13C644.729 181.73 645.144 182.685 644.573 185.848C644.006 188.99 644.329 189.755 646.763 191.021C650.852 193.148 658.429 192.98 660.053 190.727ZM683.49 171.848C686.088 168.488 687.234 162.502 685.565 161.009C684.833 160.353 682.642 159.817 680.697 159.817C678.019 159.817 676.572 160.533 674.738 162.768C671.647 166.532 671.689 167.658 675.057 171.332C678.412 174.992 680.94 175.147 683.49 171.848ZM628.29 339.124C628.29 338.358 627.426 336.751 626.369 335.553C624.851 333.832 624.741 332.97 625.845 331.438C626.612 330.373 627.146 328.2 627.03 326.61C626.685 321.877 626.843 321.707 632.569 320.636C637.061 319.796 638.071 319.23 638.071 317.552C638.071 314.172 641.519 311.318 645.22 311.636C648.088 311.883 648.426 312.267 648.137 314.955C647.958 316.627 646.328 320.305 644.517 323.128C642.705 325.95 641.095 328.873 640.938 329.622C639.676 335.655 637.614 338.643 634.082 339.558C629.139 340.837 628.29 340.774 628.29 339.124ZM957.888 308.683C956.593 307.714 954.668 306.883 953.608 306.836C952.549 306.79 949.207 306.642 946.181 306.507C936.878 306.091 931.201 304.368 923.584 299.648C917.044 295.596 914.648 294.662 911.662 295.003C911.17 295.059 910.422 294.086 910.001 292.841C909.58 291.595 908.745 290.576 908.146 290.576C907.546 290.576 907.056 289.963 907.056 289.214C907.056 286.936 912.267 287.666 915.15 290.349C917.666 292.69 918.085 292.776 921.869 291.718C925.503 290.703 926.336 290.808 930.235 292.77C932.617 293.968 936.962 295.234 939.891 295.582C944.988 296.189 947.799 297.594 950.46 300.864C951.132 301.691 953.058 302.508 954.739 302.681C956.667 302.879 958.431 303.971 959.514 305.639C960.459 307.093 961.697 308.419 962.265 308.585C962.833 308.752 963.298 309.263 963.298 309.72C963.298 311.11 960.383 310.551 957.888 308.683ZM883.825 308.708C883.825 308.224 884.651 307.829 885.659 307.829C888.008 307.829 888.008 308.396 885.659 309.065C884.651 309.353 883.825 309.192 883.825 308.708ZM835.026 304.742C828.774 303.325 826.624 302.5 828.095 302.08C831.883 301.001 839.94 301.433 844.234 302.946C847.569 304.122 848.134 304.674 847.02 305.671C845.325 307.188 846.077 307.246 835.026 304.742ZM868.542 298.748C868.126 298.249 868.091 297.474 868.463 297.027C868.835 296.58 868.317 295.98 867.312 295.694C864.924 295.013 864.93 291.484 867.319 291.484C868.446 291.484 869.153 290.633 869.153 289.279C869.153 287.128 871.958 284.219 874.031 284.219C876.293 284.219 878.884 285.361 878.277 286.091C877.923 286.516 876.831 286.635 875.849 286.356C873.237 285.611 872.253 288.467 874.537 290.163C877.379 292.275 877.08 296.671 874.044 297.386C872.699 297.703 871.599 298.344 871.599 298.809C871.599 299.935 869.495 299.893 868.542 298.748ZM816.622 294.7C815.761 293.93 814.162 293.287 813.067 293.271C810.141 293.228 807.279 291.334 806.244 288.756C805.743 287.509 802.5 284.591 799.036 282.27C795.572 279.949 793.108 277.766 793.562 277.42C794.417 276.766 809.332 282.508 813.375 285.047C816.432 286.966 820.632 294.286 819.26 295.304C818.645 295.761 817.52 295.504 816.622 294.7ZM843.172 290.827C837.182 289.522 836.846 289.095 838.113 284.391C838.693 282.235 839.916 281.298 843.553 280.217C846.134 279.45 848.774 278.096 849.421 277.208C850.068 276.32 852.264 274.869 854.301 273.984C857.904 272.419 858.07 272.427 860.393 274.279C863.92 277.091 862.982 285.023 858.619 289.271C856.072 291.751 855.032 292.2 853.711 291.386C852.622 290.714 851.502 290.657 850.508 291.223C849.513 291.788 846.953 291.65 843.172 290.827ZM892.384 285.127C892.384 284.628 892.934 284.219 893.607 284.219C894.279 284.219 894.829 284.628 894.829 285.127C894.829 285.627 894.279 286.035 893.607 286.035C892.934 286.035 892.384 285.627 892.384 285.127ZM882.603 270.647C878.898 269.939 878.55 267.526 882.098 267.15C884.985 266.843 888.495 269.361 886.769 270.5C886.159 270.902 884.284 270.969 882.603 270.647ZM739.571 266.739C739.58 266.115 740.062 265.05 740.64 264.372C741.984 262.798 743.753 264.625 742.755 266.556C741.921 268.17 739.545 268.307 739.571 266.739ZM871.487 251.303C870.444 249.19 870.592 245.181 871.732 244.658C872.661 244.232 872.879 244.369 872.327 245.033C871.847 245.61 871.949 246.081 872.553 246.081C873.495 246.081 876.489 249.913 876.489 251.118C876.489 251.538 871.69 251.715 871.487 251.303ZM356.455 241.157C356.048 240.37 356.026 239.123 356.406 238.386C357.009 237.219 357.34 237.227 358.988 238.451C360.671 239.701 360.676 240.004 359.036 241.222C357.396 242.44 357.114 242.433 356.455 241.157ZM834.308 239.725C834.723 239.226 835.856 238.817 836.825 238.817C837.794 238.817 838.587 239.226 838.587 239.725C838.587 240.224 837.454 240.633 836.07 240.633C834.685 240.633 833.892 240.224 834.308 239.725ZM290.226 234.277C289.81 233.777 290.328 233.369 291.376 233.369C292.424 233.369 293.282 233.777 293.282 234.277C293.282 234.776 292.765 235.185 292.132 235.185C291.499 235.185 290.641 234.776 290.226 234.277ZM271.274 232.614C271.274 231.265 277.163 229.478 279.445 230.135C281.564 230.745 281.557 230.834 279.294 232.071C276.728 233.474 271.274 233.843 271.274 232.614ZM870.376 231.098C870.376 230.349 870.926 229.736 871.599 229.736C872.271 229.736 872.821 230.349 872.821 231.098C872.821 231.848 872.271 232.461 871.599 232.461C870.926 232.461 870.376 231.848 870.376 231.098ZM256.603 228.821C256.603 227.728 255.296 227.092 252.311 226.733C249.95 226.448 247.104 225.536 245.985 224.705C244.562 223.648 242.729 223.341 239.884 223.684C237.647 223.953 235.817 223.791 235.817 223.323C235.817 222.855 236.23 222.441 236.734 222.403C237.239 222.364 238.752 222.12 240.097 221.859C246.634 220.591 251.405 220.557 253.043 221.768C253.992 222.469 257.657 223.812 261.188 224.753C264.718 225.693 267.606 226.926 267.606 227.493C267.606 228.059 265.131 228.943 262.105 229.457C257.218 230.288 256.603 230.217 256.603 228.821ZM920.922 201.083C920.549 200.362 919.234 199.771 918.001 199.771C915.252 199.771 914.233 198.706 915.512 197.17C916.379 196.127 918.754 195.49 922.479 195.3C923.228 195.262 926.635 193.188 930.049 190.692C933.621 188.081 936.592 186.555 937.045 187.099C937.478 187.62 937.168 188.641 936.355 189.368C935.542 190.095 935.283 190.69 935.779 190.69C936.275 190.69 935.792 191.697 934.706 192.928C933.62 194.159 932.723 196.1 932.713 197.242C932.685 200.327 931.393 201.248 926.249 201.851C922.816 202.254 921.422 202.053 920.922 201.083ZM534.926 186.604C534.539 185.855 534.413 185.242 534.646 185.242C534.878 185.242 535.754 185.855 536.591 186.604C537.468 187.389 537.587 187.966 536.871 187.966C536.188 187.966 535.313 187.353 534.926 186.604ZM518.251 181.156C518.251 180.407 518.467 179.794 518.732 179.794C518.996 179.794 519.529 180.407 519.916 181.156C520.303 181.905 520.087 182.518 519.435 182.518C518.784 182.518 518.251 181.905 518.251 181.156ZM938.488 176.436C936.876 176.125 936.513 175.494 937.112 174.045C937.56 172.961 937.999 172.004 938.088 171.918C938.177 171.831 940.131 172.046 942.43 172.395C946.686 173.042 949.194 175.253 945.671 175.253C944.607 175.253 943.735 175.662 943.735 176.162C943.735 177.097 942.3 177.172 938.488 176.436ZM943.568 164.661C942.367 163.586 941.901 160.155 941.901 152.379C941.901 137.115 943.339 135.038 945.554 147.104C945.967 149.351 947.108 152.102 948.09 153.217C949.69 155.032 949.625 155.593 947.473 158.575C945.742 160.974 945.397 162.361 946.24 163.53C947.798 165.693 945.709 166.577 943.568 164.661ZM319.709 152.949C319.305 152.168 318.484 151.755 317.883 152.031C317.281 152.307 316.2 152.004 315.479 151.359C314.52 150.501 314.806 149.407 316.545 147.283C317.852 145.686 319.476 144.38 320.152 144.38C322.166 144.38 328.739 149.969 328.739 151.682C328.739 154.419 321.027 155.501 319.709 152.949ZM479.848 143.472C480.327 141.724 480.791 139.421 480.878 138.355C480.966 137.289 481.645 135.859 482.386 135.177C483.871 133.812 482.457 129.851 480.485 129.851C479.845 129.851 478.958 128.628 478.516 127.132C478.074 125.637 476.898 124.075 475.903 123.662C474.074 122.901 474.054 119.512 475.867 117.365C477.181 115.808 482.378 115.932 483.209 117.54C483.581 118.26 483.586 120.224 483.219 121.903C482.695 124.3 483.218 125.545 485.65 127.692C487.354 129.196 489.114 131.507 489.559 132.826C490.005 134.145 491.141 135.7 492.084 136.281C494.211 137.592 494.319 141.126 492.27 142.334C491.429 142.83 488.542 143.53 485.854 143.891C483.165 144.251 480.519 145.02 479.972 145.598C479.425 146.177 479.369 145.22 479.848 143.472ZM463.884 136.957C464.718 134.116 469.728 128.623 470.775 129.4C471.039 129.596 471.041 131.425 470.779 133.463C470.391 136.487 469.63 137.429 466.65 138.573L462.996 139.976L463.884 136.957ZM97.6572 130.251C97.6572 129.473 98.2075 129.088 98.8799 129.397C99.5524 129.706 100.103 130.343 100.103 130.813C100.103 131.283 99.5524 131.667 98.8799 131.667C98.2075 131.667 97.6572 131.03 97.6572 130.251ZM90.9326 121.679C90.517 121.179 90.7597 120.771 91.4718 120.771C92.184 120.771 92.7666 121.179 92.7666 121.679C92.7666 122.178 92.524 122.587 92.2275 122.587C91.9309 122.587 91.3483 122.178 90.9326 121.679ZM352.283 102.649C345.276 101.385 345.739 102.044 337.579 81.7244C336.476 78.9776 335.136 76.342 334.601 75.8675C332.254 73.7832 333.646 67.2687 337.298 63.2503C341.853 58.2381 341.872 57.0269 337.444 54.2599C333.463 51.772 331.636 48.5877 333.657 47.66C334.399 47.3194 336.076 47.7592 337.382 48.6374C338.689 49.5157 340.096 49.9834 340.509 49.6768C341.894 48.6476 339.682 42.6783 337.915 42.6783C336.97 42.6783 335.672 41.9825 335.032 41.1321C334.064 39.8477 333.545 39.7841 331.968 40.7563C328.953 42.6146 327.517 41.1164 327.517 36.1129C327.517 32.9677 326.827 30.905 325.379 29.7164C324.018 28.5999 323.211 26.4121 323.158 23.6985C323.112 21.3536 322.649 18.9237 322.129 18.2987C321.609 17.6738 320.545 15.2625 319.765 12.9403C318.698 9.7638 317.412 8.3137 314.571 7.08548C310.596 5.36655 301.479 4.81786 294.906 5.90196C291.436 6.47433 290.826 6.25022 289.099 3.7699C288.037 2.24549 287.169 0.773633 287.169 0.499118C287.169 0.224603 319.562 0 359.153 0H431.137L432.092 2.95116C433.567 7.50683 432.963 10.2679 430.145 11.8465C427.301 13.4395 427.112 18.8042 429.914 18.388C432.179 18.0516 431.768 19.4768 429.08 21.2837C427.78 22.1572 427.014 23.4464 427.376 24.1486C428.127 25.6018 428.297 25.573 415.373 26.1813C410.821 26.3956 409.858 28.8768 413.885 30.0139C416.601 30.7808 416.96 31.3048 416.342 33.5992C415.759 35.7653 416.145 36.4877 418.334 37.3256C423.373 39.2543 426.552 42.0508 426.552 44.5555C426.552 47.4524 423.567 48.6682 421.365 46.6684C417.875 43.4995 415.495 41.7706 414.631 41.776C414.127 41.7792 412.744 43.0468 411.559 44.593C410.229 46.329 408.743 47.2158 407.675 46.9114C405.777 46.3706 402.856 48.3862 404.147 49.3452C404.59 49.6738 406.491 49.9427 408.373 49.9427C410.543 49.9427 412.273 50.607 413.103 51.7588C413.96 52.948 415.663 53.5749 418.036 53.5749C420.767 53.5749 421.661 53.9953 421.661 55.2798C421.661 57.6297 419.47 58.7697 412.829 59.8749C409.262 60.4687 405.421 62.0019 402.487 64.0032C399.92 65.7543 396.719 67.1911 395.374 67.1962C393.294 67.2043 388.48 71.2332 382.796 77.725C382.317 78.2722 380.29 79.2938 378.292 79.9952C375.788 80.874 374.044 82.5047 372.684 85.2409C371.597 87.4246 369.435 89.9247 367.879 90.7966C365.972 91.8652 365.261 92.982 365.698 94.224C366.588 96.7511 361.676 103.026 358.661 103.214C357.335 103.296 354.464 103.042 352.283 102.649ZM292.223 94.1307C290.99 93.0266 289.384 92.7721 286.105 93.1615C281.799 93.6729 281.502 93.5216 276.755 88.3881C272.115 83.3711 271.563 83.077 266.481 82.9101C255.102 82.5362 257.228 75.1319 268.953 74.3006C272.975 74.0155 273.11 73.8786 273.149 70.0507C273.171 67.8752 272.531 65.4274 271.727 64.611C270.416 63.2788 269.937 63.3906 267.053 65.7016C264.084 68.0811 263.635 68.1755 261.138 66.9465C255.64 64.2398 258.242 61.7232 266.888 61.3848C270.862 61.2293 270.302 59.4552 265.907 58.2749C263.608 57.6574 261.42 56.5585 261.045 55.8329C260.66 55.0888 259.543 54.7472 258.483 55.0494C257.262 55.3973 256.603 55.0631 256.603 54.0968C256.603 52.4817 252.051 50.8208 249.557 51.5257C248.708 51.7656 247.221 51.4738 246.253 50.8773C245.285 50.2806 243.341 50.0642 241.932 50.3964C240.048 50.8406 237.853 50.0893 233.621 47.551C230.458 45.654 227.426 43.6795 226.884 43.1631C226.342 42.6468 226.18 39.3639 226.525 35.8679C227.066 30.3785 227.606 29.2194 230.486 27.3689C233.686 25.3126 233.886 25.2936 235.465 26.8972C236.449 27.896 236.811 29.5798 236.367 31.083C235.366 34.4687 238.579 34.4779 242.507 31.1007L245.411 28.6035L246.686 30.8737C249.277 35.4877 251.243 36.5459 256.531 36.1714C259.26 35.9781 261.493 36.0586 261.493 36.3504C261.493 36.6421 264.284 36.8808 267.695 36.8808C275.01 36.8808 276.505 38.0408 275.459 42.9053C274.789 46.024 274.968 46.3106 277.586 46.3113C281.771 46.3122 289.614 52.6278 289.614 55.9963C289.614 57.4613 289.039 59.0876 288.335 59.6102C287.444 60.2717 288.686 61.0228 292.423 62.0826C295.383 62.9222 298.485 64.5697 299.34 65.7562C300.192 66.9394 303.029 68.5316 305.644 69.2945C308.993 70.2715 310.19 71.0846 309.693 72.0457C309.306 72.7961 309.619 74.2854 310.39 75.3552C312.598 78.4192 309.913 80.0791 303.24 79.7744C296.752 79.478 295.961 80.3797 298.232 85.4889C299.486 88.3127 299.5 89.2711 298.298 90.1511C297.106 91.0243 296.451 90.9224 295.205 89.6698C293.538 87.994 289.614 87.4799 289.614 88.9373C289.614 89.4084 290.765 90.3924 292.171 91.1238C293.577 91.8553 294.54 93.168 294.311 94.0409C293.925 95.5092 293.769 95.516 292.223 94.1307ZM236.144 88.7846C231.452 86.3321 231.215 84.8734 234.944 81.4124L237.726 78.8302L243.496 80.9123C247.891 82.4979 249.267 83.4925 249.267 85.0835C249.267 86.5972 248.563 87.1727 246.712 87.1727C245.306 87.1727 243.243 88.0002 242.127 89.0116L240.097 90.8505L236.144 88.7846ZM435.722 87.8675C434.377 87.2811 431.076 86.5785 428.386 86.306C423.6 85.8213 423.487 85.7251 423.111 81.8281C422.631 76.852 423.763 75.9653 428.9 77.2951C431.884 78.0677 433.148 78.0726 433.78 77.314C434.248 76.7508 437.078 76.0419 440.067 75.7385C444.789 75.2593 445.952 75.4966 448.927 77.5466C452.94 80.3122 452.579 81.0778 445.082 85.7081C439.172 89.3581 439.151 89.3628 435.722 87.8675ZM644.887 60.9493C644.509 60.494 645.021 59.8872 646.026 59.6009C647.03 59.3145 647.853 59.4519 647.853 59.9061C647.853 61.1371 645.68 61.9014 644.887 60.9493ZM155.428 56.7874C147.481 54.0618 147.207 52.3114 154.511 50.9455C158.121 50.2703 160.013 49.424 160.013 48.484C160.013 47.299 158.692 47.1051 152.371 47.362L144.73 47.6726L145.142 42.6783C145.709 35.7997 147.582 33.9756 155.345 32.7392C161.156 31.8136 161.948 31.8816 163.642 33.4513C164.672 34.4057 167.028 35.4499 168.877 35.7716C170.726 36.0933 172.26 36.8596 172.286 37.4743C172.312 38.0891 174.1 39.4158 176.26 40.4225C178.42 41.4292 180.349 43.0885 180.547 44.1099C180.745 45.1313 182.53 46.6789 184.514 47.5491C188.688 49.3804 190.091 52.424 188.424 56.0331C187.488 58.0594 186.666 58.4875 184.331 58.163C179.992 57.5597 169.698 57.6761 165.515 58.3757C162.884 58.8157 160.032 58.3666 155.428 56.7874ZM198.526 58.1151C197.442 56.812 198.935 55.3862 201.35 55.4199C203.939 55.456 207.932 57.6377 206.862 58.4319C205.612 59.3603 199.365 59.1229 198.526 58.1151ZM664.297 49.1045C663.659 48.6435 661.495 48.1328 659.49 47.9695C654.689 47.5785 652.448 43.6129 655.577 41.0452C656.708 40.1168 657.651 38.5721 657.673 37.6125C657.694 36.653 658.469 35.126 659.395 34.2192C660.819 32.8238 661.458 32.7466 663.549 33.7168C665.423 34.586 665.742 35.2504 664.867 36.4646C664.132 37.4846 664.177 39.4801 664.991 41.9612C667.3 48.9991 667.474 49.9427 666.461 49.9427C665.91 49.9427 664.936 49.5655 664.297 49.1045ZM1060.86 47.1038C1059.32 46.092 1058.69 45.5021 1059.48 45.7929C1060.26 46.0838 1061.09 45.9211 1061.31 45.4313C1061.89 44.1663 1067.22 45.376 1067.22 46.7733C1067.22 48.8196 1063.76 48.9996 1060.86 47.1038ZM126.309 41.9595C123.492 40.5476 121.267 37.0732 121.816 34.9424C122.135 33.7035 122.817 32.6898 123.333 32.6898C124.723 32.6898 126.028 29.0075 125.804 25.7185C125.495 21.2047 129.466 20.3837 142.398 22.2876C145.45 22.7369 151.454 26.9874 151.454 28.6986C151.454 29.3638 149.006 31.249 146.013 32.888C143.021 34.527 140.041 36.9531 139.392 38.2794C138.743 39.6057 137.203 40.8958 135.969 41.1462C130.15 42.3272 127.489 42.5512 126.309 41.9595ZM196.285 41.1649C195.837 40.8319 195.466 39.9125 195.462 39.1218C195.458 38.331 193.67 36.9232 191.488 35.9934L187.522 34.3027L190.273 32.9314C191.871 32.1352 193.024 30.6306 193.024 29.3433C193.024 27.3892 193.495 27.1601 196.998 27.411C200.409 27.6552 201.026 28.0811 201.353 30.4196C201.563 31.9179 202.629 33.6533 203.721 34.2759C205.553 35.3198 205.548 35.6561 203.665 38.5892C201.757 41.5605 198.397 42.7333 196.285 41.1649ZM209.385 32.9168C208.943 31.5434 208.171 30.011 207.669 29.5116C206.42 28.2706 208.437 24.5978 210.724 23.946C211.748 23.6539 213.55 23.7244 214.727 24.1026C215.903 24.4807 217.967 24.9378 219.312 25.1183C220.656 25.2988 222.402 25.6211 223.19 25.8344C225.459 26.4485 223.646 29.7327 220.101 31.4283C218.322 32.2794 216.426 33.5243 215.889 34.1948C214.136 36.3796 210.253 35.6165 209.385 32.9168ZM255.814 30.6791C253.299 29.352 252.058 27.9631 252.163 26.5935C252.36 24.04 252.969 24.0158 257.049 26.3993C258.821 27.4344 260.271 27.9973 260.271 27.6502C260.271 27.3031 261.084 27.5207 262.079 28.1337C263.421 28.9612 263.568 29.6914 262.647 30.969C261.072 33.1548 260.457 33.1287 255.814 30.6791ZM936.978 29.0178C935.897 27.719 938.662 25.4254 941.309 25.4254C943.592 25.4254 945.443 27.74 944.279 29.1395C943.335 30.2732 937.948 30.1834 936.978 29.0178ZM663.747 26.862C663.747 26.1308 664.223 25.3141 664.805 25.0471C665.386 24.7801 666.162 22.9016 666.529 20.8727C667.335 16.4085 670.378 12.7136 673.251 12.7102C674.438 12.7089 676.433 11.2185 677.809 9.30505C680.187 5.9977 680.456 5.89886 687.407 5.77873C692.58 5.68934 695.526 5.12401 698.055 3.73562C702.178 1.47136 703.589 1.34248 704.52 3.14477C705.264 4.585 700.723 7.69201 696.377 8.71649C694.933 9.05689 692.311 10.4805 690.551 11.8801C688.79 13.2797 685.753 14.7128 683.801 15.0648C680.677 15.6284 669.86 23.0419 669.86 24.6201C669.86 24.9481 668.485 25.8859 666.804 26.7039C664.217 27.9627 663.747 27.987 663.747 26.862ZM230.315 19.562C228.298 18.8982 225.165 17.9217 223.352 17.3921C220.433 16.539 219.961 15.7969 219.212 10.8819C218.394 5.51196 218.219 5.29059 213.737 3.95881C207.896 2.22292 206.394 -0.0119789 211.097 0.0288788C212.925 0.0447606 215.489 0.657696 216.794 1.39095C218.1 2.12421 220.163 2.72415 221.379 2.72415C222.596 2.72415 223.608 3.23493 223.63 3.85921C223.724 6.61463 227.105 8.11798 235.299 9.04729C239.955 9.5754 246.378 10.4526 249.572 10.9966C254.892 11.9027 255.38 12.2114 255.38 14.6729C255.38 16.4691 254.913 17.1458 253.972 16.7138C253.197 16.3583 251.867 16.7751 251.015 17.64C249.78 18.8946 248.963 19.0123 246.975 18.222C245.003 17.4382 243.642 17.612 240.456 19.0549C235.809 21.159 235.253 21.1868 230.315 19.562ZM156.988 16.9937L157.788 13.8254L152.176 14.2952C146.974 14.7306 146.564 14.6145 146.564 12.7091C146.564 11.5784 147.201 9.07353 147.98 7.14273C149.586 3.16158 152.249 2.58886 155.76 5.46976C157.417 6.82982 158.241 7.01617 158.931 6.1869C159.633 5.34337 160.483 5.48303 162.371 6.75201C164.845 8.4145 164.904 8.39229 166.742 5.12682C167.766 3.30592 168.818 1.8161 169.078 1.8161C169.339 1.8161 170.689 3.24628 172.077 4.99427C173.667 6.99513 175.537 8.17244 177.127 8.17244C180.618 8.17244 181.338 10.2118 179.021 13.5388C176.896 16.5903 175.01 17.1227 173.904 14.9828C173.201 13.6216 169.665 13.0143 169.939 14.3018C170.64 17.6016 169.702 18.3876 165.646 17.8987C162.959 17.5749 160.564 17.8853 158.843 18.7804C156.239 20.1349 156.203 20.0998 156.988 16.9937ZM928.028 18.2737L923.936 16.6611L928.028 13.4758C931.393 10.8562 933.021 10.2838 937.19 10.253C941.409 10.2219 942.489 10.5891 943.624 12.4403C945.433 15.3882 944.431 16.3449 939.533 16.3449C936.898 16.3449 934.887 16.9659 933.798 18.1156C932.171 19.8322 931.995 19.837 928.028 18.2737ZM209.172 17.6454C207.711 16.8853 206.058 14.9544 205.5 13.3544C204.169 9.54013 200.36 8.82829 200.36 12.3939V14.9324L197.734 12.9817C195.338 11.2021 194.865 11.149 192.344 12.3759C189.715 13.6551 189.541 13.5891 188.782 11.0212C188.343 9.53651 186.917 7.4084 185.613 6.29206C182.45 3.58317 182.6 2.35688 185.994 3.17713C189.472 4.01765 192.894 4.02206 196.318 3.19043C198.584 2.64011 199.286 3.04685 200.841 5.80971C201.853 7.60864 203.492 9.08049 204.483 9.08049C207.896 9.08049 213.886 13.6598 213.473 15.9526C212.933 18.945 212.214 19.228 209.172 17.6454ZM956.573 17.2529C956.158 16.7535 956.918 16.3449 958.263 16.3449C959.608 16.3449 961.048 16.7535 961.464 17.2529C961.88 17.7524 961.119 18.161 959.774 18.161C958.429 18.161 956.989 17.7524 956.573 17.2529ZM250.631 4.03531C247.483 2.0684 246.513 1.87485 244.269 2.76666C242.339 3.53384 240.835 3.55291 238.719 2.83703C232.691 0.797113 235.644 -0.0695554 247.724 0.194126C257.578 0.409204 259.697 0.709035 260.012 1.93289C260.395 3.42078 257.325 6.35634 255.386 6.35634C254.814 6.35634 252.674 5.31188 250.631 4.03531ZM134.579 4.35654C133.773 3.75838 133.114 2.53346 133.114 1.63449C133.114 0.294035 134.141 0 138.82 0C141.958 0 144.294 0.102156 144.01 0.227012C143.727 0.351869 141.818 1.57679 139.769 2.94906C136.875 4.88698 135.716 5.20126 134.579 4.35654Z" fill="#333333"/>
</svg>
